<svg width="46" height="31" viewBox="0 0 46 31" fill="none" xmlns="http://www.w3.org/2000/svg">
<g id="Clip path group">
<g id="Group">
<path id="Vector" d="M1.00283 27.2801L1.65993 6.32307C1.59071 4.36696 2.34451 3.74365 3.48518 3.47708C8.87281 2.21744 25.2472 -1.63967 43.0561 3.92402C45.3574 4.64253 45.2834 5.93025 45.2464 7.08968L44.6102 27.0697C44.5637 28.5368 43.113 29.599 41.4944 29.3485C36.2945 28.5438 29.2229 28.2953 22.0404 28.3594C14.6198 28.4256 8.00709 29.0088 3.37991 29.9497C1.61343 30.3085 0.950684 28.9176 1.00283 27.2801Z" stroke="#2A1E17" stroke-width="1.02927" stroke-miterlimit="10" stroke-linecap="round" stroke-linejoin="round"/>
<path id="Vector_2" d="M6.99561 24.2157L17.3612 11.3907L28.8363 23.3589C24.8804 21.9981 6.99561 24.2157 6.99561 24.2157Z" stroke="#2A1E17" stroke-width="1.02927" stroke-miterlimit="10" stroke-linecap="round" stroke-linejoin="round"/>
<path id="Vector_3" d="M23.715 17.3282L32.0951 10.2403L39.1573 15.5675L39.4228 23.895L28.8362 23.3599" stroke="#2A1E17" stroke-width="1.02927" stroke-miterlimit="10" stroke-linecap="round" stroke-linejoin="round"/>
<path id="Vector_4" d="M11.5158 10.4663C11.612 9.46137 10.781 8.5496 9.65982 8.42978C8.53863 8.30997 7.55178 9.02748 7.45563 10.0324C7.35949 11.0373 8.19046 11.949 9.31166 12.0688C10.4329 12.1886 11.4197 11.4712 11.5158 10.4663Z" stroke="#2A1E17" stroke-width="1.02927" stroke-miterlimit="10" stroke-linecap="round" stroke-linejoin="round"/>
</g>
</g>
</svg>
